<svg xmlns="http://www.w3.org/2000/svg" xmlns:xlink="http://www.w3.org/1999/xlink" width="2000" zoomAndPan="magnify" viewBox="0 0 1500 1499.999933" height="2000" preserveAspectRatio="xMidYMid meet" version="1.0"><defs><g/></defs><g fill="#000000" fill-opacity="1"><g transform="translate(218.962631, 871.843009)"><g><path d="M 51.28125 -227.109375 C 42.25 -227.109375 34.738281 -229.976562 28.75 -235.71875 C 22.769531 -241.457031 19.78125 -248.601562 19.78125 -257.15625 C 19.78125 -265.695312 22.769531 -272.835938 28.75 -278.578125 C 34.738281 -284.316406 42.25 -287.1875 51.28125 -287.1875 C 60.320312 -287.1875 67.832031 -284.316406 73.8125 -278.578125 C 79.789062 -272.835938 82.78125 -265.695312 82.78125 -257.15625 C 82.78125 -248.601562 79.789062 -241.457031 73.8125 -235.71875 C 67.832031 -229.976562 60.320312 -227.109375 51.28125 -227.109375 Z M 76.5625 -202.9375 L 76.5625 0 L 25.28125 0 L 25.28125 -202.9375 Z M 76.5625 -202.9375 "/></g></g></g><g fill="#000000" fill-opacity="1"><g transform="translate(298.086125, 871.843009)"><g><path d="M 137.734375 -205.875 C 161.910156 -205.875 181.445312 -198.238281 196.34375 -182.96875 C 211.238281 -167.707031 218.6875 -146.398438 218.6875 -119.046875 L 218.6875 0 L 167.40625 0 L 167.40625 -112.09375 C 167.40625 -128.207031 163.375 -140.597656 155.3125 -149.265625 C 147.257812 -157.941406 136.269531 -162.28125 122.34375 -162.28125 C 108.1875 -162.28125 97.015625 -157.941406 88.828125 -149.265625 C 80.648438 -140.597656 76.5625 -128.207031 76.5625 -112.09375 L 76.5625 0 L 25.28125 0 L 25.28125 -202.9375 L 76.5625 -202.9375 L 76.5625 -177.65625 C 83.394531 -186.445312 92.125 -193.347656 102.75 -198.359375 C 113.375 -203.367188 125.035156 -205.875 137.734375 -205.875 Z M 137.734375 -205.875 "/></g></g></g><g fill="#000000" fill-opacity="1"><g transform="translate(517.507981, 871.843009)"><g><path d="M 76.5625 -173.625 C 83.15625 -182.90625 92.25 -190.660156 103.84375 -196.890625 C 115.445312 -203.117188 128.695312 -206.234375 143.59375 -206.234375 C 160.9375 -206.234375 176.628906 -201.957031 190.671875 -193.40625 C 204.710938 -184.863281 215.820312 -172.71875 224 -156.96875 C 232.175781 -141.21875 236.265625 -122.960938 236.265625 -102.203125 C 236.265625 -81.441406 232.175781 -63.0625 224 -47.0625 C 215.820312 -31.070312 204.710938 -18.679688 190.671875 -9.890625 C 176.628906 -1.097656 160.9375 3.296875 143.59375 3.296875 C 128.695312 3.296875 115.570312 0.242188 104.21875 -5.859375 C 92.863281 -11.960938 83.644531 -19.65625 76.5625 -28.9375 L 76.5625 96.703125 L 25.28125 96.703125 L 25.28125 -202.9375 L 76.5625 -202.9375 Z M 183.890625 -102.203125 C 183.890625 -114.410156 181.382812 -124.96875 176.375 -133.875 C 171.375 -142.789062 164.78125 -149.566406 156.59375 -154.203125 C 148.414062 -158.847656 139.566406 -161.171875 130.046875 -161.171875 C 120.765625 -161.171875 112.03125 -158.789062 103.84375 -154.03125 C 95.664062 -149.269531 89.070312 -142.367188 84.0625 -133.328125 C 79.0625 -124.296875 76.5625 -113.675781 76.5625 -101.46875 C 76.5625 -89.257812 79.0625 -78.632812 84.0625 -69.59375 C 89.070312 -60.5625 95.664062 -53.664062 103.84375 -48.90625 C 112.03125 -44.144531 120.765625 -41.765625 130.046875 -41.765625 C 139.566406 -41.765625 148.414062 -44.203125 156.59375 -49.078125 C 164.78125 -53.960938 171.375 -60.921875 176.375 -69.953125 C 181.382812 -78.992188 183.890625 -89.742188 183.890625 -102.203125 Z M 183.890625 -102.203125 "/></g></g></g><g fill="#000000" fill-opacity="1"><g transform="translate(743.157117, 871.843009)"><g><path d="M 216.859375 -202.9375 L 216.859375 0 L 165.203125 0 L 165.203125 -25.640625 C 158.609375 -16.847656 150 -9.945312 139.375 -4.9375 C 128.757812 0.0625 117.222656 2.5625 104.765625 2.5625 C 88.890625 2.5625 74.847656 -0.789062 62.640625 -7.5 C 50.429688 -14.21875 40.84375 -24.109375 33.875 -37.171875 C 26.914062 -50.242188 23.4375 -65.816406 23.4375 -83.890625 L 23.4375 -202.9375 L 74.734375 -202.9375 L 74.734375 -91.21875 C 74.734375 -75.09375 78.757812 -62.695312 86.8125 -54.03125 C 94.875 -45.363281 105.863281 -41.03125 119.78125 -41.03125 C 133.945312 -41.03125 145.054688 -45.363281 153.109375 -54.03125 C 161.171875 -62.695312 165.203125 -75.09375 165.203125 -91.21875 L 165.203125 -202.9375 Z M 216.859375 -202.9375 "/></g></g></g><g fill="#000000" fill-opacity="1"><g transform="translate(962.578973, 871.843009)"><g><path d="M 84.984375 -160.8125 L 84.984375 -62.640625 C 84.984375 -55.796875 86.628906 -50.847656 89.921875 -47.796875 C 93.222656 -44.742188 98.78125 -43.21875 106.59375 -43.21875 L 130.40625 -43.21875 L 130.40625 0 L 98.171875 0 C 54.941406 0 33.328125 -21 33.328125 -63 L 33.328125 -160.8125 L 9.15625 -160.8125 L 9.15625 -202.9375 L 33.328125 -202.9375 L 33.328125 -253.125 L 84.984375 -253.125 L 84.984375 -202.9375 L 130.40625 -202.9375 L 130.40625 -160.8125 Z M 84.984375 -160.8125 "/></g></g></g><g fill="#000000" fill-opacity="1"><g transform="translate(1081.996962, 871.843009)"><g><path d="M 76.5625 -171.4375 C 83.15625 -182.175781 91.757812 -190.597656 102.375 -196.703125 C 113 -202.816406 125.148438 -205.875 138.828125 -205.875 L 138.828125 -152.015625 L 125.28125 -152.015625 C 109.164062 -152.015625 97.015625 -148.226562 88.828125 -140.65625 C 80.648438 -133.09375 76.5625 -119.910156 76.5625 -101.109375 L 76.5625 0 L 25.28125 0 L 25.28125 -202.9375 L 76.5625 -202.9375 Z M 76.5625 -171.4375 "/></g></g></g><g fill="#fd6d2c" fill-opacity="1"><g transform="translate(215.992001, 641.776302)"><g><path d="M 54.46875 -67 C 64.488281 -67 72.992188 -63.5 79.984375 -56.5 C 86.984375 -49.507812 90.484375 -41.007812 90.484375 -31 C 90.484375 -21.1875 86.984375 -12.78125 79.984375 -5.78125 C 72.992188 1.207031 64.488281 4.703125 54.46875 4.703125 C 44.664062 4.703125 36.265625 1.207031 29.265625 -5.78125 C 22.273438 -12.78125 18.78125 -21.1875 18.78125 -31 C 18.78125 -41.007812 22.273438 -49.507812 29.265625 -56.5 C 36.265625 -63.5 44.664062 -67 54.46875 -67 Z M 54.46875 -67 "/></g></g></g></svg>